#!OML:ASF F:\VICON\USERDATA\INSTALL\rory3\rory3.ASF
:FULLY-SPECIFIED
:DEGREES
44
root 0.19703744243898275 17.565348640626684 22.527114102941376 0.49264490443850584 -3.0811255139172697 -3.920980388810269
lfemur -28.48004845516395 -2.674312702884647 -18.468684539630424
ltibia 31.165782898625885
lfoot 1.271542144550382 -4.970046483126232
ltoes -3.3482156333341906
rfemur 12.50623678772094 2.7012990958364114 29.586109787754808
rtibia 63.02001679066544
rfoot 15.714247375188812 4.134777533116203
rtoes 2.2489733596998867
lowerback 10.906358497443643 3.1847096247927125 4.707210302829126
upperback -0.9548724449573269 4.926740734606621 0.7069975886542252
thorax -6.994728328067726 2.2223046040850214 -2.656125444622443
lowerneck -18.63801649075054 -4.577690782267481 -1.678089735182645
upperneck 17.462451553585417 -6.407458660256573 2.791911100269506
head 8.63260889653557 -2.807212963832197 0.48007177114536476
lclavicle -1.9818816220168596e-15 8.809349401372001e-16
lhumerus -56.56173796647223 2.393916090998718 88.02241323047593
lradius 56.4300162723026
lwrist 13.484751259275585
lhand -23.300794260551008 14.86876428876123
lfingers 7.125019999999999
lthumb 3.152449552108406 44.828120029382355
rclavicle -1.9818816220168596e-15 8.809349401372001e-16
rhumerus -32.28856192762415 -0.31036535302210044 -90.9226169837651
rradius 72.53197051456657
rwrist -4.811538893349465
rhand -18.09590097239375 31.868969419935382
rfingers 7.125019999999999
rthumb 8.177562466799685 2.1370591549699824
45
root 0.31220756266142596 17.711100346227294 24.119273353768037 -0.4379328321088345 -3.3129590976745016 -2.417583171322905
lfemur -24.561270920078677 -2.231846074212267 -21.452523042164447
ltibia 34.34630053030426
lfoot -1.5740519593395608 -4.648791147283487
ltoes -1.2386937628968697
rfemur 3.8536519670763454 1.0040777127864888 26.539875891287394
rtibia 79.52453411832957
rfoot 26.410078970999017 2.2871751541071124
rtoes 14.43709178472201
lowerback 11.47656909804163 3.074435659423848 3.0291570552357436
upperback -0.8244111714816503 4.577093953546743 0.23129948223185437
thorax -7.191259496556259 2.0925676241052233 -2.012196132611983
lowerneck -18.590039950697513 -4.256421156845001 -1.773605010668843
upperneck 17.439218993365184 -5.98827203575147 2.8539445742487564
head 8.633294121428964 -2.598866282699905 0.5442053671071816
lclavicle -2.1259275836167508e-15 7.79899264510063e-16
lhumerus -55.80544984149247 2.0362446802627643 87.92175699487443
lradius 56.88652551944264
lwrist 15.061388744899254
lhand -23.818891558348817 14.525056864844178
lfingers 7.125019999999999
lthumb 2.6520950371607612 44.48334165162041
rclavicle -2.1259275836167508e-15 7.79899264510063e-16
rhumerus -34.302124276212304 -2.200026943877103 -90.47662279444904
rradius 71.02114661321137
rwrist -3.667297269382064
rhand -17.57405271284623 31.32278775141157
rfingers 7.125019999999999
rthumb 8.681210580708953 1.5802055061450218
46
root 0.38641163330547096 17.837169350849088 24.732560407962424 -1.1769424785157074 -3.5448606913775516 -1.1412554826267516
lfemur -19.752933304526287 -2.37822601332433 -23.80965235552452
ltibia 35.046408210345874
lfoot -5.465019543375149 -2.844848590296433
ltoes -0.2520126839438621
rfemur -6.324711677632848 -0.716199081946534 24.139310984928233
rtibia 93.83491210010061
rfoot 26.976907324944634 -1.6852949163163338
rtoes 21.352732976104903
lowerback 12.142437940605781 2.7956400757000774 1.4406278898132245
upperback -0.49016289626831067 4.011259352979666 -0.03740210837839353
thorax -7.310862757812281 1.8631804829620784 -1.2258003702657543
lowerneck -18.614641926425996 -3.6575148610737838 -1.7910338350112152
upperneck 17.2427684767219 -5.165088073355102 2.708030378653605
head 8.581654496105516 -2.2200249399202887 0.5638670456442255
lclavicle -2.2960421496086995e-15 6.606242298356279e-16
lhumerus -53.64561440379198 0.7472235875637239 88.48777057688508
lradius 58.07027097555823
lwrist 16.726694473753327
lhand -25.08940637653036 13.21630557852273
lfingers 7.125019999999999
lthumb 1.4251315355104903 43.179852811756206
rclavicle -2.2960421496086995e-15 6.606242298356279e-16
rhumerus -35.628895327185774 -4.014755745722829 -90.13425940010315
rradius 69.19063286259113
rwrist -2.250782159691245
rhand -17.050882421388717 30.812924674088315
rfingers 7.125019999999999
rthumb 9.186128846159695 1.064837352668591
47
root 0.4185132707789829 17.90581258943725 25.233201329946375 -1.7031349132512155 -3.2843943118002024 -0.2545945218081962
lfemur -15.00585400214176 -2.8486177273314466 -25.64045122627247
ltibia 34.73482634631956
lfoot -9.169473245817073 -1.1449699342412516
ltoes -0.1575767088614839
rfemur -16.832239927763474 -2.5369976311142297 22.669360776654244
rtibia 102.60052174493224
rfoot 18.526867399000146 -5.208361153353289
rtoes 20.07602150024985
lowerback 12.672504973079063 2.254338209598633 0.1553402570472171
upperback -0.10711173849785519 3.1191126174677617 -0.07715203150111938
thorax -7.35679767580988 1.4790828014027797 -0.3937001159665561
lowerneck -18.57357621489604 -3.037399167371377 -1.8174898971937339
upperneck 17.09014947240987 -4.2670319038682365 2.4100289578694807
head 8.5195758541583 -1.8286655706000867 0.5528877556076168
lclavicle -2.6394243359597134e-15 4.198716874403711e-16
lhumerus -50.09994969057057 -1.1997576807336428 89.14062786402484
lradius 59.14035417815801
lwrist 17.383983413677065
lhand -25.986990293332717 12.08986240742327
lfingers 7.125019999999999
lthumb 0.5583347264836374 42.05942284312408
rclavicle -2.6394243359597134e-15 4.198716874403711e-16
rhumerus -36.875905760701585 -5.66820196154768 -89.86008502454531
rradius 67.45214851547212
rwrist -1.1247589903880362
rhand -16.73281002817969 30.496441068282643
rfingers 7.125019999999999
rthumb 9.493096405709784 0.7172851809745522
